<svg xmlns="http://www.w3.org/2000/svg" width="42.388" height="31.791" viewBox="0 0 42.388 31.791">
  <g id="envelope" transform="translate(0 -64)">
    <g id="Groupe_5" data-name="Groupe 5" transform="translate(0 64)">
      <path id="Tracé_3" data-name="Tracé 3" d="M38.856,64H3.532A3.536,3.536,0,0,0,0,67.532V92.259a3.536,3.536,0,0,0,3.532,3.532H38.856a3.536,3.536,0,0,0,3.532-3.532V67.532A3.536,3.536,0,0,0,38.856,64ZM3.532,65.766H38.856a1.68,1.68,0,0,1,.367.074c-3.058,2.8-13.2,12.076-16.747,15.273a1.771,1.771,0,0,1-2.564,0c-3.548-3.2-13.689-12.474-16.747-15.272A1.688,1.688,0,0,1,3.532,65.766ZM1.766,92.259V67.532a1.706,1.706,0,0,1,.1-.488c2.341,2.142,9.416,8.615,14,12.787C11.3,83.759,4.219,90.469,1.859,92.719A1.7,1.7,0,0,1,1.766,92.259Zm37.09,1.766H3.532a1.69,1.69,0,0,1-.4-.081c2.438-2.324,9.56-9.073,14.053-12.916.586.531,1.121,1.016,1.542,1.4a3.528,3.528,0,0,0,4.929,0c.422-.38.957-.865,1.543-1.4,4.493,3.843,11.614,10.591,14.053,12.916A1.688,1.688,0,0,1,38.856,94.025Zm1.766-1.766a1.706,1.706,0,0,1-.093.46c-2.36-2.251-9.437-8.96-14.009-12.888,4.588-4.172,11.662-10.644,14-12.787a1.707,1.707,0,0,1,.1.488Z" transform="translate(0 -64)" fill="#fff"/>
    </g>
  </g>
</svg>
