<svg xmlns="http://www.w3.org/2000/svg" width="100" height="100" viewBox="0 0 100 100">
  <path id="github" d="M50,.5C22.375.5,0,23.456,0,51.769c0,22.656,14.325,41.869,34.188,48.643,2.5.483,3.417-1.1,3.417-2.465,0-1.217-.042-4.443-.063-8.717C23.633,92.32,20.7,82.351,20.7,82.351c-2.275-5.917-5.563-7.5-5.563-7.5-4.529-3.178.35-3.113.35-3.113,5.021.357,7.658,5.283,7.658,5.283,4.458,7.839,11.7,5.574,14.562,4.265a11.031,11.031,0,0,1,3.167-6.856C29.771,73.147,18.1,68.738,18.1,49.095a20.057,20.057,0,0,1,5.146-13.756c-.563-1.3-2.25-6.509.438-13.569,0,0,4.188-1.374,13.75,5.256a46.014,46.014,0,0,1,25,0c9.5-6.63,13.687-5.256,13.687-5.256,2.688,7.061,1,12.274.5,13.569a20.14,20.14,0,0,1,5.125,13.756c0,19.7-11.687,24.03-22.812,25.291,1.75,1.539,3.375,4.683,3.375,9.487,0,6.861-.063,12.374-.063,14.039,0,1.343.875,2.948,3.437,2.435A51,51,0,0,0,100,51.769C100,23.456,77.612.5,50,.5Z" transform="translate(0 -0.5)" fill="#212121"/>
</svg>
