<svg xmlns="http://www.w3.org/2000/svg" width="94.484" height="92.909" viewBox="0 0 94.484 92.909">
  <g id="linkedin" transform="translate(1 -4.267)">
    <g id="Groupe_7" data-name="Groupe 7" transform="translate(-1 4.267)">
      <g id="Groupe_6" data-name="Groupe 6">
        <path id="Tracé_4" data-name="Tracé 4" d="M11.755,4.267A12.635,12.635,0,0,0-1,16.865a12.626,12.626,0,0,0,3.779,8.976A12.01,12.01,0,0,0,11.6,29.463h.315a11.937,11.937,0,0,0,8.5-3.622A12.626,12.626,0,0,0,24.2,16.865a11.768,11.768,0,0,0-3.622-8.819A11.918,11.918,0,0,0,11.755,4.267Zm6.456,19.369A8.674,8.674,0,0,1,11.6,26.313a9.558,9.558,0,0,1-6.614-2.677A9.158,9.158,0,0,1,2.15,16.865a9.411,9.411,0,0,1,9.606-9.448,9.188,9.188,0,0,1,6.456,2.677,9.413,9.413,0,0,1,2.835,6.771A9.158,9.158,0,0,1,18.212,23.636Z" transform="translate(1 -4.267)"/>
        <path id="Tracé_5" data-name="Tracé 5" d="M24.855,157.867H12.1a4.606,4.606,0,0,0-4.567,4.724v55.115a4.844,4.844,0,0,0,4.724,4.724h12.6a4.818,4.818,0,0,0,4.724-4.567V162.591A4.844,4.844,0,0,0,24.855,157.867Zm1.575,60a1.554,1.554,0,0,1-1.575,1.417h-12.6a1.693,1.693,0,0,1-1.575-1.575V162.591a1.553,1.553,0,0,1,1.417-1.575H24.855a1.693,1.693,0,0,1,1.575,1.575Z" transform="translate(-5.958 -129.522)"/>
        <path id="Tracé_6" data-name="Tracé 6" d="M209.913,149.333h-3.307a21.273,21.273,0,0,0-15.747,6.929v-2.2a3.387,3.387,0,0,0-3.15-3.15H171.963a3.235,3.235,0,0,0-3.15,2.992v58.737a3.1,3.1,0,0,0,3.15,2.835h17.322a3.1,3.1,0,0,0,3.15-2.835V178.623c0-5.2,3.779-9.291,8.661-9.291a9.282,9.282,0,0,1,6.614,2.677c1.575,1.417,2.2,3.622,2.2,6.456v33.857a3.387,3.387,0,0,0,3.15,3.15H228.81a3.387,3.387,0,0,0,3.15-3.15V171.694C231.96,159.1,222.354,149.333,209.913,149.333Zm18.9,62.832-.157.157H213.22l-.157-33.856c0-3.779-.945-6.614-2.992-8.661a12.386,12.386,0,0,0-8.819-3.622,12.141,12.141,0,0,0-11.81,12.44v33.7H172.12V154.057h15.59l.157.157v9.921l4.252-4.252.157-.157a17.969,17.969,0,0,1,14.488-7.244h3.307c10.551,0,18.739,8.5,18.739,19.212Z" transform="translate(-137.476 -122.563)"/>
      </g>
    </g>
  </g>
</svg>
